<?xml version="1.0" encoding="UTF-8" standalone="no"?>
<svg
   xmlns:dc="http://purl.org/dc/elements/1.1/"
   xmlns:cc="http://creativecommons.org/ns#"
   xmlns:rdf="http://www.w3.org/1999/02/22-rdf-syntax-ns#"
   xmlns:svg="http://www.w3.org/2000/svg"
   xmlns="http://www.w3.org/2000/svg"
   xmlns:sodipodi="http://sodipodi.sourceforge.net/DTD/sodipodi-0.dtd"
   xmlns:inkscape="http://www.inkscape.org/namespaces/inkscape"
   version="1.1"
   x="0px"
   y="0px"
   viewBox="0 0 512 640"
   enable-background="new 0 0 512 512"
   xml:space="preserve"
   id="svg2"
   inkscape:version="0.91 r13725"
   sodipodi:docname="pessoal.svg"><metadata
     id="metadata26"><rdf:RDF><cc:Work
         rdf:about=""><dc:format>image/svg+xml</dc:format><dc:type
           rdf:resource="http://purl.org/dc/dcmitype/StillImage" /></cc:Work></rdf:RDF></metadata><defs
     id="defs24" /><sodipodi:namedview
     pagecolor="#ffffff"
     bordercolor="#666666"
     borderopacity="1"
     objecttolerance="10"
     gridtolerance="10"
     guidetolerance="10"
     inkscape:pageopacity="0"
     inkscape:pageshadow="2"
     inkscape:window-width="1024"
     inkscape:window-height="699"
     id="namedview22"
     showgrid="false"
     inkscape:zoom="0.36875"
     inkscape:cx="307.52542"
     inkscape:cy="320"
     inkscape:window-x="106"
     inkscape:window-y="36"
     inkscape:window-maximized="0"
     inkscape:current-layer="svg2" /><g
     id="g4"
     style="fill:#004e9d;fill-opacity:1"
     inkscape:export-xdpi="1440"
     inkscape:export-ydpi="1440"><path
       d="M370.7,223.2c0-40.7-33.1-73.7-73.7-73.7H215c-40.7,0-73.7,33.1-73.7,73.7v147.5h49.2V510h131.1V370.7h49.2V223.2z    M354.3,354.3h-32.8V256h-16.4v237.6h-41V378.3h-16.4v115.3h-41V256h-16.4v98.3h-32.8V223.2c0-31.6,25.7-57.4,57.4-57.4H297   c31.6,0,57.4,25.7,57.4,57.4V354.3z"
       id="path6"
       style="fill:#004e9d;fill-opacity:1" /><path
       d="M256,133.1c36.1,0,65.5-29.4,65.5-65.5C321.5,31.4,292.1,2,256,2c-36.1,0-65.5,29.4-65.5,65.5   C190.5,103.7,219.9,133.1,256,133.1z M256,18.4c27.1,0,49.2,22.1,49.2,49.2s-22.1,49.2-49.2,49.2c-27.1,0-49.2-22.1-49.2-49.2   S228.9,18.4,256,18.4z"
       id="path8"
       style="fill:#004e9d;fill-opacity:1" /><path
       d="M157.7,440.4c0,11.3-9.2,20.5-20.5,20.5h-20.5v-99h-16.4v99H79.8c-11.3,0-20.5-9.2-20.5-20.5V280.6H43v57.4H18.4V256   c0-31.6,25.7-57.4,57.4-57.4h57.4v-16.4H75.7C35.1,182.3,2,215.3,2,256v98.3h41v86c0,20.3,16.5,36.9,36.9,36.9h57.4   c20.3,0,36.9-16.5,36.9-36.9v-53.3h-16.4V440.4z"
       id="path10"
       style="fill:#004e9d;fill-opacity:1" /><path
       d="M108.5,165.9c36.1,0,65.5-29.4,65.5-65.5c0-36.1-29.4-65.5-65.5-65.5C72.4,34.8,43,64.2,43,100.3   C43,136.5,72.4,165.9,108.5,165.9z M108.5,51.2c27.1,0,49.2,22.1,49.2,49.2s-22.1,49.2-49.2,49.2c-27.1,0-49.2-22.1-49.2-49.2   S81.4,51.2,108.5,51.2z"
       id="path12"
       style="fill:#004e9d;fill-opacity:1" /><path
       d="M436.3,182.3h-57.4v16.4h57.4c31.6,0,57.4,25.7,57.4,57.4v81.9H469v-57.4h-16.4v159.8c0,11.3-9.2,20.5-20.5,20.5h-20.5v-99   h-16.4v99h-20.5c-11.3,0-20.5-9.2-20.5-20.5v-53.3h-16.4v53.3c0,20.3,16.5,36.9,36.9,36.9h57.4c20.3,0,36.9-16.5,36.9-36.9v-86h41   V256C510,215.3,476.9,182.3,436.3,182.3z"
       id="path14"
       style="fill:#004e9d;fill-opacity:1" /><path
       d="M403.5,165.9c36.1,0,65.5-29.4,65.5-65.5c0-36.1-29.4-65.5-65.5-65.5c-36.1,0-65.5,29.4-65.5,65.5   C337.9,136.5,367.3,165.9,403.5,165.9z M403.5,51.2c27.1,0,49.2,22.1,49.2,49.2s-22.1,49.2-49.2,49.2c-27.1,0-49.2-22.1-49.2-49.2   S376.4,51.2,403.5,51.2z"
       id="path16"
       style="fill:#004e9d;fill-opacity:1" /></g></svg>