<?xml version="1.0" encoding="UTF-8" standalone="no"?>
<svg
   xmlns:dc="http://purl.org/dc/elements/1.1/"
   xmlns:cc="http://creativecommons.org/ns#"
   xmlns:rdf="http://www.w3.org/1999/02/22-rdf-syntax-ns#"
   xmlns:svg="http://www.w3.org/2000/svg"
   xmlns="http://www.w3.org/2000/svg"
   xmlns:sodipodi="http://sodipodi.sourceforge.net/DTD/sodipodi-0.dtd"
   xmlns:inkscape="http://www.inkscape.org/namespaces/inkscape"
   version="1.1"
   x="0px"
   y="0px"
   viewBox="0 0 100 125"
   style="enable-background:new 0 0 100 100;"
   xml:space="preserve"
   id="svg2"
   inkscape:version="0.91 r13725"
   sodipodi:docname="societario.svg"><metadata
     id="metadata14"><rdf:RDF><cc:Work
         rdf:about=""><dc:format>image/svg+xml</dc:format><dc:type
           rdf:resource="http://purl.org/dc/dcmitype/StillImage" /></cc:Work></rdf:RDF></metadata><defs
     id="defs12" /><sodipodi:namedview
     pagecolor="#ffffff"
     bordercolor="#666666"
     borderopacity="1"
     objecttolerance="10"
     gridtolerance="10"
     guidetolerance="10"
     inkscape:pageopacity="0"
     inkscape:pageshadow="2"
     inkscape:window-width="1236"
     inkscape:window-height="701"
     id="namedview10"
     showgrid="false"
     inkscape:zoom="1.888"
     inkscape:cx="-5.3199153"
     inkscape:cy="62.5"
     inkscape:window-x="32"
     inkscape:window-y="26"
     inkscape:window-maximized="0"
     inkscape:current-layer="g4144" /><g
     id="g4144"
     transform="translate(-141.94915,5.2966102)"><circle
       r="54.025425"
       cy="48.199154"
       cx="48.728813"
       id="path4142"
       style="opacity:0.92000002;fill:#004e9d;fill-opacity:1;fill-rule:evenodd;stroke:none;stroke-width:1px;stroke-linecap:butt;stroke-linejoin:miter;stroke-opacity:1"
       inkscape:export-xdpi="1440"
       inkscape:export-ydpi="1440" /><path
       inkscape:connector-curvature="0"
       style="fill:#ffffff;fill-opacity:1"
       id="path4"
       d="M 94.584914,43.301573 80.206008,20.526184 C 79.992141,20.188294 79.653273,19.949524 79.263625,19.86261 78.873,19.77667 78.465773,19.84845 78.127883,20.063782 l -10.083985,6.461426 c -0.694336,0.444824 -0.899414,1.366699 -0.458984,2.063964 l 0.860474,1.362915 -2.085083,0.840209 c -0.201172,0.08203 -0.421875,0.10205 -0.63379,0.05664 L 59.28609,29.496399 C 55.574175,28.716126 51.799761,28.672668 48.066363,29.36554 l -6.057617,1.125974 c -1.658692,0.308472 -3.175476,1.084168 -4.39386,2.218384 l -5.63739,-0.89563 c -0.118164,-0.01855 -0.230469,-0.05566 -0.333985,-0.109375 l -2.566347,-1.332397 0.724549,-1.147581 c 0.211914,-0.336426 0.282226,-0.743165 0.194335,-1.131348 -0.08789,-0.388184 -0.326171,-0.725586 -0.662109,-0.937988 L 19.320267,20.833801 c -0.699219,-0.440918 -1.626953,-0.233398 -2.069336,0.467774 l -14.3789049,22.7749 c -0.2119141,0.336426 -0.2822266,0.743164 -0.1943359,1.131348 0.087891,0.388184 0.3261719,0.725586 0.6621094,0.937988 l 10.0136724,6.321778 c 0.249023,0.156738 0.52539,0.231445 0.799804,0.231445 0.497071,0 0.984374,-0.247559 1.269531,-0.699219 l 0.682251,-1.080688 4.691467,6.185974 -1.589539,2.272644 c -1.509765,2.159179 -0.992187,5.158695 1.152344,6.684574 l 0.08399,0.06006 c 0.806518,0.573731 1.744567,0.874451 2.710632,0.889344 -2.44e-4,1.538696 0.717773,3.057922 2.062805,4.004699 0.831055,0.584961 1.798828,0.889649 2.792969,0.889649 0.291992,0 0.586914,-0.02637 0.880859,-0.07959 0.271973,-0.04938 0.531189,-0.132324 0.78595,-0.223999 0.416138,1.080749 1.185183,1.998474 2.217958,2.554565 0.734375,0.39502 1.527344,0.584473 2.310547,0.584473 0.74115,0 1.471375,-0.17456 2.136597,-0.499634 0.479004,0.893494 1.245911,1.602906 2.2052,1.999146 0.541016,0.223144 1.108399,0.330078 1.671875,0.330078 1.345032,0 2.656067,-0.617737 3.508301,-1.713196 l 7.280762,1.113586 c 0.493164,0.0752 0.985351,0.112305 1.473633,0.112305 2.511901,0 4.905334,-0.989807 6.707519,-2.772522 0.171814,0.01636 0.343689,0.02985 0.515137,0.02985 1.788086,0 3.52148,-0.884277 4.561519,-2.479492 0.553894,-0.765381 0.831543,-1.689331 0.819702,-2.623657 0.02203,2.44e-4 0.04407,0.004 0.06604,0.004 1.875,0 3.714844,-0.915039 4.800782,-2.565918 0.439087,-0.66687 0.664489,-1.420166 0.708923,-2.192688 0.121826,0.0084 0.243713,0.02423 0.365295,0.02423 1.728516,0 3.415039,-0.844726 4.436524,-2.391605 0.787109,-1.191895 1.058594,-2.618164 0.766601,-4.016602 -0.03949,-0.188415 -0.112182,-0.362488 -0.170471,-0.54303 l 5.751038,-5.435424 0.153808,0.243591 c 0.213868,0.337891 0.552735,0.57666 0.942383,0.663574 0.108399,0.02393 0.217774,0.03564 0.326172,0.03564 0.28418,0 0.56543,-0.08105 0.80957,-0.236817 l 10.083985,-6.461426 c 0.694336,-0.444824 0.899414,-1.366699 0.458984,-2.063964 z M 13.686479,49.129698 6.2099168,44.409483 18.98726,24.171692 26.463822,28.891907 13.686479,49.129698 Z m 8.414062,14.48975 c -0.80957,-0.576172 -1.004883,-1.707524 -0.43457,-2.521977 l 2.856445,-4.083984 c 0.348633,-0.498535 0.905273,-0.770996 1.483398,-0.770996 0.335938,0 0.679688,0.09229 0.993164,0.285644 0.426758,0.263672 0.719727,0.678223 0.824219,1.167969 0.09589,0.447083 0.01471,0.898254 -0.214538,1.289124 l -3.001709,4.394718 c -0.270874,0.316284 -0.633423,0.534057 -1.049378,0.608154 -0.482422,0.08496 -0.972656,-0.02393 -1.37207,-0.308594 l -0.08496,-0.06006 z m 6.254883,5.255371 c -0.499024,0.08984 -0.998047,-0.02051 -1.417969,-0.31543 -0.832031,-0.585937 -1.042969,-1.746582 -0.46875,-2.586914 l 0.612122,-0.896118 c 0.04102,-0.05487 0.0921,-0.09918 0.131042,-0.156128 0.886719,-1.29541 1.93457,-2.83643 2.821289,-4.143559 0.02332,-0.03436 0.03601,-0.07294 0.05835,-0.107727 l 2.39966,-3.512878 c 0.359375,-0.527344 0.951172,-0.812988 1.551758,-0.812988 0.349609,0 0.703125,0.09717 1.014648,0.300293 0.425781,0.276855 0.714844,0.703125 0.814453,1.200683 0.09961,0.498047 -0.0029,1.003418 -0.289062,1.422852 l -0.827576,1.213623 c -0.0166,0.02325 -0.039,0.04114 -0.05524,0.0647 l -4.512697,6.558109 c -0.08081,0.11731 -0.131958,0.248597 -0.201599,0.371582 l -0.417542,0.612305 c -0.285156,0.417481 -0.71582,0.697266 -1.21289,0.787598 z m 4.958009,2.63916 c -0.474609,-0.255371 -0.805664,-0.68457 -0.932617,-1.208984 -0.09345,-0.38855 -0.06201,-0.781922 0.08405,-1.140381 l 4.76617,-6.989384 c 0.298767,-0.391235 0.722961,-0.649658 1.214233,-0.720825 0.0918,-0.01318 0.183594,-0.02002 0.275391,-0.02002 0.424805,0 0.833008,0.144043 1.170898,0.417481 0.754883,0.611332 0.915039,1.716801 0.365235,2.517094 l -1.356079,1.972595 c -0.03168,0.04224 -0.07269,0.07574 -0.102906,0.119201 l -2.197265,3.154297 c -0.07514,0.107972 -0.120362,0.22876 -0.185059,0.341553 l -0.66748,0.970947 c -0.543946,0.788574 -1.588867,1.041992 -2.434571,0.586426 z m 8.094727,1.450195 c -0.379883,0.545899 -1.100586,0.758789 -1.716797,0.503418 -0.402344,-0.166015 -0.704101,-0.500976 -0.826172,-0.918945 -0.09027,-0.306213 -0.0733,-0.626587 0.03888,-0.916748 l 2.461425,-3.579956 c 0.225342,-0.257324 0.525879,-0.428284 0.870789,-0.475952 0.06738,-0.0093 0.133789,-0.01367 0.200195,-0.01367 0.329102,0 0.643555,0.112305 0.902344,0.325684 0.0078,0.0059 0.01465,0.01172 0.02246,0.01758 0.554688,0.473144 0.664063,1.304687 0.245117,1.905273 l -2.198242,3.152832 0,4.88e-4 z m 31.550777,-13.50098 c -0.685546,1.037598 -2.05957,1.348633 -3.123046,0.711914 L 68.514846,59.38452 c -4.28e-4,-2.44e-4 -7.94e-4,-6.72e-4 -0.0012,-9.16e-4 l -1.229492,-0.73584 c -5.5e-4,-3.05e-4 -0.0011,-4.88e-4 -0.0016,-7.93e-4 L 57.071246,52.535948 c -0.708984,-0.425293 -1.630859,-0.194336 -2.057617,0.516602 -0.425781,0.710937 -0.194336,1.632324 0.516601,2.057617 l 11.442929,6.848205 c 0.34729,0.207642 0.587402,0.538761 0.678161,0.933049 0.08984,0.394531 0.0166,0.797851 -0.205078,1.135742 -0.771484,1.171386 -2.34082,1.562011 -3.571289,0.892578 l -9.978512,-5.438969 c -0.725586,-0.397949 -1.638672,-0.129394 -2.035156,0.599121 -0.396484,0.727051 -0.12793,1.638184 0.599609,2.034668 l 7.206727,3.928532 1.771789,1.081726 c 0.333008,0.203613 0.557617,0.526855 0.631836,0.910156 0.0752,0.383301 -0.0127,0.76709 -0.246094,1.080566 -0.02051,0.02832 -0.04102,0.05762 -0.05957,0.0874 -0.682617,1.068359 -2.047852,1.442383 -3.181641,0.867187 L 50.858355,66.14728 c -0.735351,-0.374512 -1.641601,-0.08057 -2.016601,0.658203 -0.375,0.738769 -0.08008,1.641601 0.65918,2.016601 l 6.427246,3.263611 c -1.314881,0.818054 -2.884766,1.162903 -4.467286,0.919983 l -5.805664,-0.888 0.41211,-0.591004 c 1.3125,-1.882324 0.952148,-4.498047 -0.821289,-5.955078 -0.01172,-0.0098 -0.02246,-0.01904 -0.03418,-0.02783 -0.540466,-0.436035 -1.177429,-0.716919 -1.845764,-0.862122 0.535095,-1.839416 -0.03125,-3.901981 -1.586853,-5.161319 -0.82428,-0.667176 -1.844239,-1.032532 -2.891541,-1.070435 0.01874,-0.396057 0.0058,-0.795227 -0.07428,-1.194702 -0.258789,-1.29541 -1.011718,-2.405762 -2.11914,-3.125977 -2.187195,-1.425048 -5.151489,-0.839355 -6.64258,1.289612 -0.383789,-0.576782 -0.88562,-1.07843 -1.509766,-1.463928 -1.906433,-1.176086 -4.328552,-0.865601 -5.882507,0.641846 l -4.843872,-6.386841 9.654419,-15.291748 2.79071,1.448852 c 0.389649,0.202637 0.807619,0.340332 1.245119,0.410157 l 3.885865,0.617248 -3.92688,5.109802 c -0.670899,0.872071 -0.959963,1.952637 -0.813479,3.042481 0.147463,1.089844 0.71094,2.055664 1.586916,2.718262 1.256836,0.952148 2.97168,1.09375 4.369141,0.364257 L 47.579058,40.89386 c 0.347657,-0.182617 0.770508,-0.16211 1.10254,0.05176 l 23.603511,15.298339 c 0.522461,0.338379 0.879883,0.86084 1.007813,1.470215 0.126953,0.608887 0.0088,1.229981 -0.333985,1.749024 z m 1.374573,-5.404236 c -0.13916,-0.111145 -0.266052,-0.234436 -0.417541,-0.33258 L 50.312457,38.428038 c -1.237305,-0.803223 -2.818359,-0.875 -4.124023,-0.192871 l -10.97168,5.735351 c -0.371094,0.194824 -0.829102,0.157715 -1.167969,-0.09766 -0.234375,-0.177246 -0.384766,-0.435547 -0.423828,-0.726562 -0.03906,-0.291016 0.03809,-0.57959 0.217773,-0.813477 l 5.16211,-6.716309 c 0.875976,-1.140136 2.137695,-1.912597 3.552734,-2.175781 l 6.057617,-1.125976 c 3.341797,-0.620606 6.726563,-0.581543 10.053711,0.117187 l 6.441403,1.353027 c 0.797851,0.167481 1.61914,0.09473 2.37207,-0.210449 l 2.590637,-1.044311 10.104736,16.00531 -5.844238,5.523437 z m 9.360779,-5.572815 -12.777344,-20.238767 7.558594,-4.842774 12.777344,20.238768 -7.558594,4.842773 z" /><path
       d="m 114.71203,140.22954 -14.3789,-22.77539 c -0.21387,-0.33789 -0.552738,-0.57666 -0.942386,-0.66357 -0.390625,-0.0859 -0.797852,-0.0142 -1.135742,0.20117 l -10.083985,6.46142 c -0.694336,0.44483 -0.899414,1.3667 -0.458984,2.06397 l 0.860474,1.36291 -2.085083,0.84021 c -0.201172,0.082 -0.421875,0.10205 -0.63379,0.0566 l -6.440425,-1.35253 c -3.711915,-0.78028 -7.486329,-0.82374 -11.219727,-0.13086 l -6.057617,1.12597 c -1.658692,0.30847 -3.175476,1.08417 -4.39386,2.21838 l -5.63739,-0.89563 c -0.118164,-0.0186 -0.230469,-0.0557 -0.333985,-0.10937 l -2.566347,-1.3324 0.724549,-1.14758 c 0.211914,-0.33642 0.282226,-0.74316 0.194335,-1.13135 -0.08789,-0.38818 -0.326171,-0.72558 -0.662109,-0.93798 l -10.013672,-6.32178 c -0.699219,-0.44092 -1.626953,-0.2334 -2.069336,0.46777 l -14.378905,22.7749 c -0.211914,0.33643 -0.282227,0.74317 -0.194336,1.13135 0.08789,0.38818 0.326172,0.72559 0.662109,0.93799 l 10.013673,6.32178 c 0.249023,0.15673 0.52539,0.23144 0.799804,0.23144 0.497071,0 0.984374,-0.24756 1.269531,-0.69922 l 0.682251,-1.08069 4.691467,6.18598 -1.589539,2.27264 c -1.509765,2.15918 -0.992187,5.1587 1.152344,6.68458 l 0.08399,0.0601 c 0.806518,0.57373 1.744567,0.87445 2.710632,0.88934 -2.44e-4,1.5387 0.717773,3.05792 2.062805,4.0047 0.831055,0.58496 1.798828,0.88965 2.792969,0.88965 0.291992,0 0.586914,-0.0264 0.880859,-0.0796 0.271973,-0.0494 0.531189,-0.13233 0.78595,-0.224 0.416138,1.08075 1.185183,1.99847 2.217958,2.55456 0.734375,0.39502 1.527344,0.58448 2.310547,0.58448 0.74115,0 1.471375,-0.17456 2.136597,-0.49964 0.479004,0.8935 1.245911,1.60291 2.2052,1.99915 0.541016,0.22314 1.108399,0.33008 1.671875,0.33008 1.345032,0 2.656067,-0.61774 3.508301,-1.7132 l 7.280762,1.11359 c 0.493164,0.0752 0.985351,0.1123 1.473633,0.1123 2.511901,0 4.905334,-0.98981 6.707519,-2.77252 0.171814,0.0164 0.343689,0.0299 0.515137,0.0299 1.788086,0 3.52148,-0.88428 4.561519,-2.47949 0.553894,-0.76538 0.831543,-1.68933 0.819702,-2.62366 0.02203,2.4e-4 0.04407,0.004 0.06604,0.004 1.875,0 3.714844,-0.91504 4.800782,-2.56592 0.439087,-0.66687 0.664489,-1.42016 0.708923,-2.19269 0.121826,0.008 0.243713,0.0242 0.365295,0.0242 1.728516,0 3.415039,-0.84472 4.436524,-2.3916 0.787109,-1.1919 1.058594,-2.61816 0.766601,-4.0166 -0.03949,-0.18842 -0.112182,-0.36249 -0.170471,-0.54303 l 5.751042,-5.43543 0.1538,0.24359 c 0.21387,0.3379 0.55274,0.57666 0.94239,0.66358 0.1084,0.0239 0.21777,0.0356 0.32617,0.0356 0.28418,0 0.56543,-0.081 0.80957,-0.23682 l 10.08398,-6.46142 c 0.69434,-0.44483 0.89942,-1.3667 0.45899,-2.06397 z m -80.898432,5.82812 -7.476563,-4.72021 12.777344,-20.23779 7.476562,4.72021 -12.777343,20.23779 z m 8.414062,14.48975 c -0.80957,-0.57617 -1.004883,-1.70752 -0.43457,-2.52197 l 2.856445,-4.08399 c 0.348633,-0.49853 0.905273,-0.77099 1.483398,-0.77099 0.335938,0 0.679688,0.0923 0.993164,0.28564 0.426758,0.26367 0.719727,0.67822 0.824219,1.16797 0.09589,0.44708 0.01471,0.89825 -0.214538,1.28912 l -3.001709,4.39472 c -0.270874,0.31629 -0.633423,0.53406 -1.049378,0.60816 -0.482422,0.085 -0.972656,-0.0239 -1.37207,-0.3086 l -0.08496,-0.0601 z m 6.254883,5.25538 c -0.499024,0.0898 -0.998047,-0.0205 -1.417969,-0.31543 -0.832031,-0.58594 -1.042969,-1.74659 -0.46875,-2.58692 l 0.612122,-0.89612 c 0.04102,-0.0549 0.0921,-0.0992 0.131042,-0.15612 0.886719,-1.29541 1.93457,-2.83643 2.821289,-4.14356 0.02332,-0.0344 0.03601,-0.0729 0.05835,-0.10773 l 2.39966,-3.51288 c 0.359375,-0.52734 0.951172,-0.81299 1.551758,-0.81299 0.349609,0 0.703125,0.0972 1.014648,0.3003 0.425781,0.27685 0.714844,0.70312 0.814453,1.20068 0.09961,0.49805 -0.0029,1.00342 -0.289062,1.42285 l -0.827576,1.21362 c -0.0166,0.0232 -0.039,0.0411 -0.05524,0.0647 l -4.512697,6.55811 c -0.08081,0.11731 -0.131958,0.2486 -0.201599,0.37159 l -0.417542,0.6123 c -0.285156,0.41748 -0.71582,0.69727 -1.21289,0.7876 z m 4.958009,2.63916 c -0.474609,-0.25538 -0.805664,-0.68457 -0.932617,-1.20899 -0.09345,-0.38855 -0.06201,-0.78192 0.08405,-1.14038 l 4.76617,-6.98938 c 0.298767,-0.39124 0.722961,-0.64966 1.214233,-0.72083 0.0918,-0.0132 0.183594,-0.02 0.275391,-0.02 0.424805,0 0.833008,0.14404 1.170898,0.41748 0.754883,0.61133 0.915039,1.7168 0.365235,2.5171 l -1.356079,1.97259 c -0.03168,0.0422 -0.07269,0.0757 -0.102906,0.1192 l -2.197265,3.1543 c -0.07514,0.10797 -0.120362,0.22876 -0.185059,0.34155 l -0.66748,0.97095 c -0.543946,0.78857 -1.588867,1.04199 -2.434571,0.58643 z m 8.094727,1.45019 c -0.379883,0.5459 -1.100586,0.75879 -1.716797,0.50342 -0.402344,-0.16602 -0.704101,-0.50098 -0.826172,-0.91895 -0.09027,-0.30621 -0.0733,-0.62658 0.03888,-0.91674 l 2.461425,-3.57996 c 0.225342,-0.25732 0.525879,-0.42828 0.870789,-0.47595 0.06738,-0.009 0.133789,-0.0137 0.200195,-0.0137 0.329102,0 0.643555,0.1123 0.902344,0.32568 0.0078,0.006 0.01465,0.0117 0.02246,0.0176 0.554688,0.47315 0.664063,1.30469 0.245117,1.90527 l -2.198242,3.15284 0,4.8e-4 z m 31.550777,-13.50098 c -0.685546,1.0376 -2.05957,1.34863 -3.123046,0.71191 l -1.321045,-0.79058 c -4.28e-4,-2.5e-4 -7.94e-4,-6.8e-4 -0.0012,-9.2e-4 l -1.229492,-0.73584 c -5.5e-4,-3e-4 -0.0011,-4.9e-4 -0.0016,-7.9e-4 l -10.211308,-6.11103 c -0.708984,-0.42529 -1.630859,-0.19433 -2.057617,0.51661 -0.425781,0.71093 -0.194336,1.63232 0.516601,2.05761 l 11.442929,6.84821 c 0.34729,0.20764 0.587402,0.53876 0.678161,0.93305 0.08984,0.39453 0.0166,0.79785 -0.205078,1.13574 -0.771484,1.17139 -2.34082,1.56201 -3.571289,0.89258 l -9.978512,-5.43897 c -0.725586,-0.39795 -1.638672,-0.1294 -2.035156,0.59912 -0.396484,0.72705 -0.12793,1.63818 0.599609,2.03467 l 7.206727,3.92853 1.771789,1.08173 c 0.333008,0.20361 0.557617,0.52685 0.631836,0.91015 0.0752,0.3833 -0.0127,0.76709 -0.246094,1.08057 -0.02051,0.0283 -0.04102,0.0576 -0.05957,0.0874 -0.682617,1.06836 -2.047852,1.44238 -3.181641,0.86718 l -7.725586,-3.92284 c -0.735351,-0.37452 -1.641601,-0.0806 -2.016601,0.6582 -0.375,0.73877 -0.08008,1.6416 0.65918,2.0166 l 6.427246,3.26361 c -1.314881,0.81806 -2.884766,1.1629 -4.467286,0.91998 l -5.805664,-0.888 0.41211,-0.591 c 1.3125,-1.88232 0.952148,-4.49805 -0.821289,-5.95508 -0.01172,-0.01 -0.02246,-0.019 -0.03418,-0.0278 -0.540466,-0.43603 -1.177429,-0.71692 -1.845764,-0.86212 0.535095,-1.83942 -0.03125,-3.90198 -1.586853,-5.16132 -0.82428,-0.66717 -1.844239,-1.03253 -2.891541,-1.07043 0.01874,-0.39606 0.0058,-0.79523 -0.07428,-1.19471 -0.258789,-1.29541 -1.011718,-2.40576 -2.11914,-3.12597 -2.187195,-1.42505 -5.151489,-0.83936 -6.64258,1.28961 -0.383789,-0.57678 -0.88562,-1.07843 -1.509766,-1.46393 -1.906433,-1.17608 -4.328552,-0.8656 -5.882507,0.64185 l -4.843872,-6.38684 9.654419,-15.29175 2.79071,1.44885 c 0.389649,0.20264 0.807619,0.34033 1.245119,0.41016 l 3.885865,0.61725 -3.92688,5.1098 c -0.670899,0.87207 -0.959963,1.95263 -0.813479,3.04248 0.147463,1.08984 0.71094,2.05566 1.586916,2.71826 1.256836,0.95215 2.97168,1.09375 4.369141,0.36426 l 10.971679,-5.73535 c 0.347657,-0.18262 0.770508,-0.16211 1.10254,0.0518 l 23.603511,15.29834 c 0.522461,0.33837 0.879883,0.86084 1.007813,1.47021 0.126953,0.60889 0.0088,1.22998 -0.333985,1.74902 z m 1.374573,-5.40424 c -0.13916,-0.11114 -0.266052,-0.23443 -0.417541,-0.33258 L 70.439576,135.356 c -1.237305,-0.80322 -2.818359,-0.875 -4.124023,-0.19287 l -10.97168,5.73535 c -0.371094,0.19483 -0.829102,0.15772 -1.167969,-0.0977 -0.234375,-0.17724 -0.384766,-0.43554 -0.423828,-0.72656 -0.03906,-0.29101 0.03809,-0.57959 0.217773,-0.81347 l 5.16211,-6.71631 c 0.875976,-1.14014 2.137695,-1.9126 3.552734,-2.17578 l 6.057617,-1.12598 c 3.341797,-0.62061 6.726563,-0.58154 10.053711,0.11719 l 6.441403,1.35302 c 0.797851,0.16748 1.61914,0.0947 2.37207,-0.21045 l 2.590637,-1.04431 10.104739,16.00531 -5.844241,5.52344 z m 9.360781,-5.57281 -12.777346,-20.23877 7.558594,-4.84277 12.777342,20.23877 -7.55859,4.84277 z"
       id="path4154"
       style="fill:#004e9d;fill-opacity:1"
       inkscape:connector-curvature="0"
       inkscape:export-xdpi="1440"
       inkscape:export-ydpi="1440" /></g></svg>