<?xml version="1.0" encoding="UTF-8" standalone="no"?>
<svg
   xmlns:dc="http://purl.org/dc/elements/1.1/"
   xmlns:cc="http://creativecommons.org/ns#"
   xmlns:rdf="http://www.w3.org/1999/02/22-rdf-syntax-ns#"
   xmlns:svg="http://www.w3.org/2000/svg"
   xmlns="http://www.w3.org/2000/svg"
   xmlns:sodipodi="http://sodipodi.sourceforge.net/DTD/sodipodi-0.dtd"
   xmlns:inkscape="http://www.inkscape.org/namespaces/inkscape"
   version="1.1"
   x="0px"
   y="0px"
   viewBox="0 0 91 113.75"
   style="enable-background:new 0 0 91 91;"
   xml:space="preserve"
   id="svg2"
   inkscape:version="0.91 r13725"
   sodipodi:docname="contabilidade.svg"><metadata
     id="metadata22"><rdf:RDF><cc:Work
         rdf:about=""><dc:format>image/svg+xml</dc:format><dc:type
           rdf:resource="http://purl.org/dc/dcmitype/StillImage" /></cc:Work></rdf:RDF></metadata><defs
     id="defs20" /><sodipodi:namedview
     pagecolor="#ffffff"
     bordercolor="#666666"
     borderopacity="1"
     objecttolerance="10"
     gridtolerance="10"
     guidetolerance="10"
     inkscape:pageopacity="0"
     inkscape:pageshadow="2"
     inkscape:window-width="1281"
     inkscape:window-height="761"
     id="namedview18"
     showgrid="false"
     inkscape:zoom="2.0747253"
     inkscape:cx="-23.355996"
     inkscape:cy="-97.362288"
     inkscape:window-x="0"
     inkscape:window-y="0"
     inkscape:window-maximized="0"
     inkscape:current-layer="svg2" /><circle
     style="fill:#004e9d;fill-opacity:1;fill-rule:evenodd;stroke:none;stroke-width:1px;stroke-linecap:butt;stroke-linejoin:miter;stroke-opacity:1"
     id="path4150"
     cx="-88.445442"
     cy="23.85858"
     r="71.09375" /><g
     id="g4"
     transform="matrix(1.0574483,0,0,1.0574483,-135.60622,-28.540907)"
     style="fill:#ffffff;fill-opacity:1"><path
       d="m 21.9,47.7 0,-3.5 -3.2,0 0,3.4 c -1.8,0.3 -3.3,1.9 -3.3,3.8 l 0,1.5 c 0,0.8 0.3,2 2,3.1 l 0.7,0.3 0,0 3.1,1.2 c 0.3,0.2 0.4,0.4 0.4,0.4 l 0,1.5 c 0,0.4 -0.3,0.7 -0.6,0.7 l -1.8,0 c -0.4,0 -0.6,-0.3 -0.6,-0.7 l 0,-0.7 -3.2,0 0,0.7 c 0,1.9 1.4,3.5 3.3,3.8 l 0,3.5 3.2,0 0,-3.5 c 1.7,-0.4 3,-1.9 3,-3.7 l 0,-1.5 c 0,-1.2 -0.7,-2.3 -2,-3.1 l -0.6,-0.2 0,0 -2.9,-1.1 -0.1,0 0,0 L 19,53.2 C 18.7,53 18.6,52.9 18.6,52.9 l 0,-1.5 c 0,-0.4 0.3,-0.7 0.7,-0.7 l 1.7,0 c 0.4,0 0.6,0.3 0.6,0.7 l 0,0.7 3.2,0 0,-0.7 C 24.9,49.6 23.6,48 21.9,47.7 Z"
       id="path6"
       inkscape:connector-curvature="0"
       style="fill:#ffffff;fill-opacity:1" /><path
       d="m 37.4,66.8 c 0,-0.2 0,-0.4 -0.1,-0.6 L 21.8,28.3 c 0,-0.3 -0.1,-0.5 -0.3,-0.8 -0.6,-0.9 -2.1,-0.9 -2.7,0 -0.2,0.3 -0.3,0.5 -0.3,0.8 L 3,66.2 c -0.1,0.2 -0.1,0.4 -0.1,0.6 0,3 2.5,5.5 5.5,5.5 l 23.5,0 c 3.1,0 5.5,-2.5 5.5,-5.5 z M 6,67 l 0.5,-1.1 7.9,0 0,-3.2 -6.6,0 12.3,-30 12.3,30 -6.6,0 0,3.2 7.9,0 0.5,1.1 c -0.1,1.2 -1.1,2.1 -2.3,2.1 l -23.5,0 C 7.2,69.1 6.2,68.2 6,67 Z"
       id="path8"
       inkscape:connector-curvature="0"
       style="fill:#ffffff;fill-opacity:1" /><path
       d="M 86.7,44.3 74,13.4 c 0,-0.3 -0.1,-0.5 -0.3,-0.7 -0.6,-0.9 -2.1,-0.9 -2.7,0 -0.2,0.2 -0.2,0.5 -0.3,0.8 L 58.1,44.3 C 58,44.5 58,44.7 58,44.9 c 0,2.6 2.2,4.8 4.8,4.8 l 19.2,0 c 2.6,0 4.8,-2.2 4.8,-4.8 0,-0.2 0,-0.4 -0.1,-0.6 z M 72.4,17.9 82,41.3 l -19.2,0 9.6,-23.4 z m 9.6,28.6 -19.2,0 c -0.8,0 -1.5,-0.6 -1.6,-1.4 l 0.3,-0.6 21.9,0 0.3,0.6 c -0.2,0.8 -0.9,1.4 -1.7,1.4 z"
       id="path10"
       inkscape:connector-curvature="0"
       style="fill:#ffffff;fill-opacity:1" /><path
       d="m 77.7,12.3 0,-4.1 C 77.7,7.7 77.5,7.2 77.1,6.9 76.7,6.6 76.2,6.5 75.7,6.6 L 52.5,13.2 C 52.8,12.4 53,11.6 53,10.7 53,7.5 50.8,4.9 47.8,4.1 l 0,-2.3 -3.2,0 0,2.4 c -3,0.7 -5.2,3.4 -5.2,6.6 0,1.8 0.7,3.4 1.9,4.6 l 0,1.1 -25.3,7.3 c -0.7,0.2 -1.1,0.8 -1.1,1.5 l 0,4.1 3.1,0 0,-2.9 23.3,-6.7 0,58.8 c -1.7,0.8 -3.2,2 -4.3,3.5 l -21.9,0 c -3.5,0 -6.4,2.8 -6.4,6.3 l 0,1.6 74.8,0 0,-1.6 c 0,-3.5 -2.8,-6.3 -6.3,-6.3 l -21.8,0 c -1.1,-1.6 -2.6,-2.7 -4.3,-3.5 l 0,-61.6 23.4,-6.7 0,2 3.2,0 z m -33.1,-4.7 0,3.1 3.2,0 0,-3.1 c 1.2,0.6 2,1.8 2,3.2 0,2 -1.6,3.6 -3.6,3.6 l 0,0 c -2,0 -3.6,-1.6 -3.6,-3.6 0,-1.4 0.8,-2.6 2,-3.2 z m 8.6,76.9 0.5,0.8 23.6,0 c 1.2,0 2.2,0.6 2.7,1.6 l -67.6,0 C 13,86 14,85.3 15.1,85.3 l 23.6,0 0.5,-0.8 c 1.3,-2.3 3.7,-3.7 6.3,-3.7 l 1.3,0 c 2.6,0.1 5,1.5 6.4,3.7 z m -5.3,-6.8 -1.1,0 -1.3,0 -1.1,0 0,-58.8 3.5,-1 0,59.8 z"
       id="path12"
       inkscape:connector-curvature="0"
       style="fill:#ffffff;fill-opacity:1" /></g><g
     style="fill:#004e9d;fill-opacity:1"
     transform="matrix(1.0574483,0,0,1.0574483,-97.528889,130.5163)"
     id="g4166"
     inkscape:export-xdpi="1440"
     inkscape:export-ydpi="1440"><path
       style="fill:#004e9d;fill-opacity:1"
       inkscape:connector-curvature="0"
       id="path4168"
       d="m 21.9,47.7 0,-3.5 -3.2,0 0,3.4 c -1.8,0.3 -3.3,1.9 -3.3,3.8 l 0,1.5 c 0,0.8 0.3,2 2,3.1 l 0.7,0.3 0,0 3.1,1.2 c 0.3,0.2 0.4,0.4 0.4,0.4 l 0,1.5 c 0,0.4 -0.3,0.7 -0.6,0.7 l -1.8,0 c -0.4,0 -0.6,-0.3 -0.6,-0.7 l 0,-0.7 -3.2,0 0,0.7 c 0,1.9 1.4,3.5 3.3,3.8 l 0,3.5 3.2,0 0,-3.5 c 1.7,-0.4 3,-1.9 3,-3.7 l 0,-1.5 c 0,-1.2 -0.7,-2.3 -2,-3.1 l -0.6,-0.2 0,0 -2.9,-1.1 -0.1,0 0,0 L 19,53.2 C 18.7,53 18.6,52.9 18.6,52.9 l 0,-1.5 c 0,-0.4 0.3,-0.7 0.7,-0.7 l 1.7,0 c 0.4,0 0.6,0.3 0.6,0.7 l 0,0.7 3.2,0 0,-0.7 C 24.9,49.6 23.6,48 21.9,47.7 Z" /><path
       style="fill:#004e9d;fill-opacity:1"
       inkscape:connector-curvature="0"
       id="path4170"
       d="m 37.4,66.8 c 0,-0.2 0,-0.4 -0.1,-0.6 L 21.8,28.3 c 0,-0.3 -0.1,-0.5 -0.3,-0.8 -0.6,-0.9 -2.1,-0.9 -2.7,0 -0.2,0.3 -0.3,0.5 -0.3,0.8 L 3,66.2 c -0.1,0.2 -0.1,0.4 -0.1,0.6 0,3 2.5,5.5 5.5,5.5 l 23.5,0 c 3.1,0 5.5,-2.5 5.5,-5.5 z M 6,67 l 0.5,-1.1 7.9,0 0,-3.2 -6.6,0 12.3,-30 12.3,30 -6.6,0 0,3.2 7.9,0 0.5,1.1 c -0.1,1.2 -1.1,2.1 -2.3,2.1 l -23.5,0 C 7.2,69.1 6.2,68.2 6,67 Z" /><path
       style="fill:#004e9d;fill-opacity:1"
       inkscape:connector-curvature="0"
       id="path4172"
       d="M 86.7,44.3 74,13.4 c 0,-0.3 -0.1,-0.5 -0.3,-0.7 -0.6,-0.9 -2.1,-0.9 -2.7,0 -0.2,0.2 -0.2,0.5 -0.3,0.8 L 58.1,44.3 C 58,44.5 58,44.7 58,44.9 c 0,2.6 2.2,4.8 4.8,4.8 l 19.2,0 c 2.6,0 4.8,-2.2 4.8,-4.8 0,-0.2 0,-0.4 -0.1,-0.6 z M 72.4,17.9 82,41.3 l -19.2,0 9.6,-23.4 z m 9.6,28.6 -19.2,0 c -0.8,0 -1.5,-0.6 -1.6,-1.4 l 0.3,-0.6 21.9,0 0.3,0.6 c -0.2,0.8 -0.9,1.4 -1.7,1.4 z" /><path
       style="fill:#004e9d;fill-opacity:1"
       inkscape:connector-curvature="0"
       id="path4174"
       d="m 77.7,12.3 0,-4.1 C 77.7,7.7 77.5,7.2 77.1,6.9 76.7,6.6 76.2,6.5 75.7,6.6 L 52.5,13.2 C 52.8,12.4 53,11.6 53,10.7 53,7.5 50.8,4.9 47.8,4.1 l 0,-2.3 -3.2,0 0,2.4 c -3,0.7 -5.2,3.4 -5.2,6.6 0,1.8 0.7,3.4 1.9,4.6 l 0,1.1 -25.3,7.3 c -0.7,0.2 -1.1,0.8 -1.1,1.5 l 0,4.1 3.1,0 0,-2.9 23.3,-6.7 0,58.8 c -1.7,0.8 -3.2,2 -4.3,3.5 l -21.9,0 c -3.5,0 -6.4,2.8 -6.4,6.3 l 0,1.6 74.8,0 0,-1.6 c 0,-3.5 -2.8,-6.3 -6.3,-6.3 l -21.8,0 c -1.1,-1.6 -2.6,-2.7 -4.3,-3.5 l 0,-61.6 23.4,-6.7 0,2 3.2,0 z m -33.1,-4.7 0,3.1 3.2,0 0,-3.1 c 1.2,0.6 2,1.8 2,3.2 0,2 -1.6,3.6 -3.6,3.6 l 0,0 c -2,0 -3.6,-1.6 -3.6,-3.6 0,-1.4 0.8,-2.6 2,-3.2 z m 8.6,76.9 0.5,0.8 23.6,0 c 1.2,0 2.2,0.6 2.7,1.6 l -67.6,0 C 13,86 14,85.3 15.1,85.3 l 23.6,0 0.5,-0.8 c 1.3,-2.3 3.7,-3.7 6.3,-3.7 l 1.3,0 c 2.6,0.1 5,1.5 6.4,3.7 z m -5.3,-6.8 -1.1,0 -1.3,0 -1.1,0 0,-58.8 3.5,-1 0,59.8 z" /></g></svg>