<?xml version="1.0" encoding="UTF-8" standalone="no"?>
<svg
   xmlns:dc="http://purl.org/dc/elements/1.1/"
   xmlns:cc="http://creativecommons.org/ns#"
   xmlns:rdf="http://www.w3.org/1999/02/22-rdf-syntax-ns#"
   xmlns:svg="http://www.w3.org/2000/svg"
   xmlns="http://www.w3.org/2000/svg"
   xmlns:sodipodi="http://sodipodi.sourceforge.net/DTD/sodipodi-0.dtd"
   xmlns:inkscape="http://www.inkscape.org/namespaces/inkscape"
   version="1.1"
   x="0px"
   y="0px"
   viewBox="0 0 100 156.25"
   style="enable-background:new 0 0 100 125;"
   xml:space="preserve"
   id="svg2"
   inkscape:version="0.91 r13725"
   sodipodi:docname="contabil.svg"><metadata
     id="metadata22"><rdf:RDF><cc:Work
         rdf:about=""><dc:format>image/svg+xml</dc:format><dc:type
           rdf:resource="http://purl.org/dc/dcmitype/StillImage" /></cc:Work></rdf:RDF></metadata><defs
     id="defs20" /><sodipodi:namedview
     pagecolor="#ffffff"
     bordercolor="#666666"
     borderopacity="1"
     objecttolerance="10"
     gridtolerance="10"
     guidetolerance="10"
     inkscape:pageopacity="0"
     inkscape:pageshadow="2"
     inkscape:window-width="1283"
     inkscape:window-height="762"
     id="namedview18"
     showgrid="false"
     inkscape:zoom="1.5104"
     inkscape:cx="-26.138771"
     inkscape:cy="78.125"
     inkscape:window-x="0"
     inkscape:window-y="0"
     inkscape:window-maximized="0"
     inkscape:current-layer="svg2" /><style
     type="text/css"
     id="style4">
	.st0{fill-rule:evenodd;clip-rule:evenodd;}
</style><circle
     style="fill:#004e9d;fill-opacity:1;fill-rule:evenodd;stroke:none;stroke-width:1px;stroke-linecap:butt;stroke-linejoin:miter;stroke-opacity:1"
     id="path4152"
     cx="-109.90466"
     cy="29.793432"
     r="70.842163"
     inkscape:export-xdpi="1440"
     inkscape:export-ydpi="1440" /><g
     id="g6"
     transform="matrix(1.1904603,0,0,1.1904603,-165.63524,-47.920718)"
     style="fill:#ffffff;fill-opacity:1"
     inkscape:export-xdpi="1440"
     inkscape:export-ydpi="1440"><g
       id="g8"
       style="fill:#ffffff;fill-opacity:1"><g
         id="g10"
         style="fill:#ffffff;fill-opacity:1"><path
           class="st0"
           d="m 75,80.5 -2,0 0,3 -3,0 0,2 3,0 0,3 2,0 0,-3 3,0 0,-2 -3,0 0,-3 z m -2.5,14.1 c 0,0.2 0,0.3 0,0.4 0,1.2 -1,1.5 -1,1.5 0,0 -44.9,0 -52.5,0 -1.2,0 -1,-1 -1,-1 l 0,-66 c 0,0 -0.2,-1 1,-1 4.4,0 24.3,-0.1 33.2,-0.1 l 0,18.4 c 0,0 0,1.2 1.6,1.2 5,0 18.7,0 18.7,0 0,5.8 0,16.3 0,26 0.5,-0.1 1,-0.1 1.6,-0.1 0.3,0 0.6,0 0.9,0 0,-11.7 0,-24.2 0,-28.9 0,-0.3 0,-1.8 0,-2 0,-1.6 -1.9,-3.3 -1.9,-3.3 L 59.7,27.2 c 0,0 -1.1,-1.2 -2.4,-1.2 -5.5,0 -35.1,0 -40.6,0 -1.4,0 -1.2,1.2 -1.2,1.2 l 0,70.6 c 0,0 0.2,1.2 1.2,1.2 8,0 57.3,0 57.3,0 0,0 1,-0.4 1,-1.5 0,-0.7 0,-1.7 0,-2.9 -0.3,0 -0.6,0 -0.9,0 -0.6,0.1 -1.1,0 -1.6,0 z M 54.9,28.4 c 0.5,0 0.9,0 1.2,0 0.4,0 2.4,1.2 2.4,1.2 l 13,12 c 0,0 1,2.1 1,2.5 0,0.3 0,0.9 0,1.5 0,0 -11.7,0.1 -16.4,0.1 -1.2,0 -1.2,-1.2 -1.2,-1.2 l 0,-16.1 z M 22,88 c 0,0 0.1,1.5 1.5,1.5 l 34.5,0 c 0.8,0 1.5,-0.7 1.5,-1.5 0,0 -0.1,-1.5 -1.5,-1.5 l -34.5,0 C 22.7,86.5 22,87.2 22,88 Z M 74.2,75.1 c -5.2,0 -9.5,4.2 -9.5,9.4 0,5.2 4.2,9.4 9.5,9.4 5.2,0 9.5,-4.2 9.5,-9.4 0,-5.2 -4.2,-9.4 -9.5,-9.4 z m 0,16.1 c -3.7,0 -6.7,-3 -6.7,-6.7 0,-3.7 3,-6.7 6.7,-6.7 3.7,0 6.7,3 6.7,6.7 0.1,3.7 -2.9,6.7 -6.7,6.7 z M 31,76.5 l 0,-2 c 1.3,-0.1 2.5,-0.5 3.2,-1.3 0.7,-0.8 1.1,-1.8 1.1,-3 0,-0.8 -0.2,-1.5 -0.5,-2 -0.3,-0.6 -0.8,-1 -1.4,-1.4 -0.6,-0.3 -1.4,-0.7 -2.4,-1.1 -0.9,-0.3 -1.5,-0.6 -1.8,-0.9 -0.3,-0.2 -0.4,-0.6 -0.4,-1 0,-0.4 0.1,-0.8 0.4,-1.1 0.3,-0.3 0.7,-0.4 1.1,-0.4 0.9,0 1.6,0.7 2.1,2 l 2.3,-1 c -0.6,-1.9 -1.9,-3.2 -3.8,-3.4 l 0,-1.5 -1.5,0 0,1.6 c -1.2,0.2 -2.2,0.8 -2.8,1.6 -0.6,0.8 -0.9,1.7 -0.9,2.7 0,0.8 0.2,1.4 0.5,2 0.3,0.6 0.7,1 1.3,1.3 0.5,0.3 1.2,0.6 2.2,1 1,0.4 1.7,0.7 2,0.9 0.3,0.2 0.4,0.6 0.4,1.1 0,0.5 -0.1,0.8 -0.4,1.2 -0.3,0.3 -0.8,0.5 -1.4,0.5 -1.4,0 -2.2,-0.7 -2.4,-2.2 l -2.6,0.7 c 0.5,2.4 1.9,3.6 4.1,3.8 l 0,2 1.6,0 z m 28.5,-10 -19.5,0 c -0.8,0 -1.5,0.7 -1.5,1.5 0,0 0.1,1.5 1.5,1.5 l 19.5,0 c 0.8,0 1.5,-0.7 1.5,-1.5 0,0 -0.1,-1.5 -1.5,-1.5 z m 0,-9 -19.5,0 c -0.8,0 -1.5,0.7 -1.5,1.5 0,0 0.1,1.5 1.5,1.5 l 19.5,0 c 0.8,0 1.5,-0.7 1.5,-1.5 0,0 -0.1,-1.5 -1.5,-1.5 z M 61,77 c 0,0 -0.1,-1.5 -1.5,-1.5 l -19.5,0 c -0.8,0 -1.5,0.7 -1.5,1.5 0,0 0.1,1.5 1.5,1.5 l 19.5,0 C 60.3,78.5 61,77.8 61,77 Z M 47,38 c 0,0 -0.1,-1.5 -1.5,-1.5 l -21,0 c -0.8,0 -1.5,0.7 -1.5,1.5 0,0 0.1,1.5 1.5,1.5 l 21,0 c 0.8,0 1.5,-0.7 1.5,-1.5 z"
           id="path12"
           inkscape:connector-curvature="0"
           style="clip-rule:evenodd;fill:#ffffff;fill-opacity:1;fill-rule:evenodd" /></g></g></g><g
     inkscape:export-ydpi="1440"
     inkscape:export-xdpi="1440"
     style="fill:#004e9d;fill-opacity:1"
     transform="matrix(1.1904603,0,0,1.1904603,-163.64901,154.01254)"
     id="g4166"><g
       style="fill:#004e9d;fill-opacity:1"
       id="g4168"><g
         style="fill:#004e9d;fill-opacity:1"
         id="g4170"><path
           style="clip-rule:evenodd;fill:#004e9d;fill-opacity:1;fill-rule:evenodd"
           inkscape:connector-curvature="0"
           id="path4172"
           d="m 75,80.5 -2,0 0,3 -3,0 0,2 3,0 0,3 2,0 0,-3 3,0 0,-2 -3,0 0,-3 z m -2.5,14.1 c 0,0.2 0,0.3 0,0.4 0,1.2 -1,1.5 -1,1.5 0,0 -44.9,0 -52.5,0 -1.2,0 -1,-1 -1,-1 l 0,-66 c 0,0 -0.2,-1 1,-1 4.4,0 24.3,-0.1 33.2,-0.1 l 0,18.4 c 0,0 0,1.2 1.6,1.2 5,0 18.7,0 18.7,0 0,5.8 0,16.3 0,26 0.5,-0.1 1,-0.1 1.6,-0.1 0.3,0 0.6,0 0.9,0 0,-11.7 0,-24.2 0,-28.9 0,-0.3 0,-1.8 0,-2 0,-1.6 -1.9,-3.3 -1.9,-3.3 L 59.7,27.2 c 0,0 -1.1,-1.2 -2.4,-1.2 -5.5,0 -35.1,0 -40.6,0 -1.4,0 -1.2,1.2 -1.2,1.2 l 0,70.6 c 0,0 0.2,1.2 1.2,1.2 8,0 57.3,0 57.3,0 0,0 1,-0.4 1,-1.5 0,-0.7 0,-1.7 0,-2.9 -0.3,0 -0.6,0 -0.9,0 -0.6,0.1 -1.1,0 -1.6,0 z M 54.9,28.4 c 0.5,0 0.9,0 1.2,0 0.4,0 2.4,1.2 2.4,1.2 l 13,12 c 0,0 1,2.1 1,2.5 0,0.3 0,0.9 0,1.5 0,0 -11.7,0.1 -16.4,0.1 -1.2,0 -1.2,-1.2 -1.2,-1.2 l 0,-16.1 z M 22,88 c 0,0 0.1,1.5 1.5,1.5 l 34.5,0 c 0.8,0 1.5,-0.7 1.5,-1.5 0,0 -0.1,-1.5 -1.5,-1.5 l -34.5,0 C 22.7,86.5 22,87.2 22,88 Z M 74.2,75.1 c -5.2,0 -9.5,4.2 -9.5,9.4 0,5.2 4.2,9.4 9.5,9.4 5.2,0 9.5,-4.2 9.5,-9.4 0,-5.2 -4.2,-9.4 -9.5,-9.4 z m 0,16.1 c -3.7,0 -6.7,-3 -6.7,-6.7 0,-3.7 3,-6.7 6.7,-6.7 3.7,0 6.7,3 6.7,6.7 0.1,3.7 -2.9,6.7 -6.7,6.7 z M 31,76.5 l 0,-2 c 1.3,-0.1 2.5,-0.5 3.2,-1.3 0.7,-0.8 1.1,-1.8 1.1,-3 0,-0.8 -0.2,-1.5 -0.5,-2 -0.3,-0.6 -0.8,-1 -1.4,-1.4 -0.6,-0.3 -1.4,-0.7 -2.4,-1.1 -0.9,-0.3 -1.5,-0.6 -1.8,-0.9 -0.3,-0.2 -0.4,-0.6 -0.4,-1 0,-0.4 0.1,-0.8 0.4,-1.1 0.3,-0.3 0.7,-0.4 1.1,-0.4 0.9,0 1.6,0.7 2.1,2 l 2.3,-1 c -0.6,-1.9 -1.9,-3.2 -3.8,-3.4 l 0,-1.5 -1.5,0 0,1.6 c -1.2,0.2 -2.2,0.8 -2.8,1.6 -0.6,0.8 -0.9,1.7 -0.9,2.7 0,0.8 0.2,1.4 0.5,2 0.3,0.6 0.7,1 1.3,1.3 0.5,0.3 1.2,0.6 2.2,1 1,0.4 1.7,0.7 2,0.9 0.3,0.2 0.4,0.6 0.4,1.1 0,0.5 -0.1,0.8 -0.4,1.2 -0.3,0.3 -0.8,0.5 -1.4,0.5 -1.4,0 -2.2,-0.7 -2.4,-2.2 l -2.6,0.7 c 0.5,2.4 1.9,3.6 4.1,3.8 l 0,2 1.6,0 z m 28.5,-10 -19.5,0 c -0.8,0 -1.5,0.7 -1.5,1.5 0,0 0.1,1.5 1.5,1.5 l 19.5,0 c 0.8,0 1.5,-0.7 1.5,-1.5 0,0 -0.1,-1.5 -1.5,-1.5 z m 0,-9 -19.5,0 c -0.8,0 -1.5,0.7 -1.5,1.5 0,0 0.1,1.5 1.5,1.5 l 19.5,0 c 0.8,0 1.5,-0.7 1.5,-1.5 0,0 -0.1,-1.5 -1.5,-1.5 z M 61,77 c 0,0 -0.1,-1.5 -1.5,-1.5 l -19.5,0 c -0.8,0 -1.5,0.7 -1.5,1.5 0,0 0.1,1.5 1.5,1.5 l 19.5,0 C 60.3,78.5 61,77.8 61,77 Z M 47,38 c 0,0 -0.1,-1.5 -1.5,-1.5 l -21,0 c -0.8,0 -1.5,0.7 -1.5,1.5 0,0 0.1,1.5 1.5,1.5 l 21,0 c 0.8,0 1.5,-0.7 1.5,-1.5 z"
           class="st0" /></g></g></g></svg>