<svg xmlns="http://www.w3.org/2000/svg" xmlns:xlink="http://www.w3.org/1999/xlink" version="1.1" x="0px" y="0px" viewBox="0 0 24 30" style="enable-background:new 0 0 24 24;" xml:space="preserve"><path d="M17.054,5.706H6.947C5.992,5.707,5.215,6.482,5.214,7.438v6.232c0.001,0.956,0.778,1.731,1.733,1.732h0.41l-0.775,2.466  c-0.045,0.144,0.014,0.3,0.142,0.378c0.053,0.032,0.111,0.048,0.17,0.048c0.085,0,0.168-0.033,0.232-0.097l2.795-2.795h7.132  c0.954-0.001,1.732-0.776,1.733-1.732V7.438C18.785,6.482,18.009,5.707,17.054,5.706z M18.131,13.67  c-0.001,0.591-0.487,1.076-1.077,1.077H9.786c-0.087,0-0.171,0.034-0.232,0.096l-1.946,1.945l0.508-1.615  c0.031-0.099,0.013-0.208-0.048-0.292c-0.063-0.084-0.16-0.134-0.265-0.134H6.947c-0.59-0.001-1.076-0.486-1.078-1.077V7.438  c0.002-0.59,0.488-1.077,1.078-1.077h10.106c0.59,0,1.076,0.486,1.077,1.077V13.67z"/><text x="0" y="39" fill="#000000" font-size="5px" font-weight="bold" font-family="'Helvetica Neue', Helvetica, Arial-Unicode, Arial, Sans-serif">Created by AlePio</text><text x="0" y="44" fill="#000000" font-size="5px" font-weight="bold" font-family="'Helvetica Neue', Helvetica, Arial-Unicode, Arial, Sans-serif">from the Noun Project</text></svg>